HIERARCHY
ROOT Hips
{
	OFFSET 0.000000 0.000000 0.000000
	CHANNELS 6 Xposition Yposition Zposition Zrotation Yrotation Xrotation 
	JOINT LHipJoint
	{
		OFFSET 0.000000 0.000000 0.000000
		CHANNELS 3 Zrotation Yrotation Xrotation
		JOINT LeftUpLeg
		{
			OFFSET 1.363060 -1.794630 0.839290
			CHANNELS 3 Zrotation Yrotation Xrotation
			JOINT LeftLeg
			{
				OFFSET 2.448110 -6.726130 0.000000
				CHANNELS 3 Zrotation Yrotation Xrotation
				JOINT LeftFoot
				{
					OFFSET 2.562200 -7.039590 0.000000
					CHANNELS 3 Zrotation Yrotation Xrotation
					JOINT LeftToeBase
					{
						OFFSET 0.157640 -0.433110 2.322550
						CHANNELS 3 Zrotation Yrotation Xrotation
						End Site
						{
							OFFSET 0.000000 0.000000 0.000000
						}
					}
				}
			}
		}
	}
	JOINT RHipJoint
	{
		OFFSET 0.000000 0.000000 0.000000
		CHANNELS 3 Zrotation Yrotation Xrotation
		JOINT RightUpLeg
		{
			OFFSET -1.305520 -1.794630 0.839290
			CHANNELS 3 Zrotation Yrotation Xrotation
			JOINT RightLeg
			{
				OFFSET -2.542530 -6.985550 0.000000
				CHANNELS 3 Zrotation Yrotation Xrotation
				JOINT RightFoot
				{
					OFFSET -2.568260 -7.056230 0.000000
					CHANNELS 3 Zrotation Yrotation Xrotation
					JOINT RightToeBase
					{
						OFFSET -0.164730 -0.452590 2.363150
						CHANNELS 3 Zrotation Yrotation Xrotation
						End Site
						{
							OFFSET 0.000000 0.000000 0.000000
						}
					}
				}
			}
		}
	}
	JOINT LowerBack
	{
		OFFSET 0.000000 0.000000 0.000000
		CHANNELS 3 Zrotation Yrotation Xrotation
		JOINT Spine
		{
			OFFSET 0.028270 2.035590 -0.193380
			CHANNELS 3 Zrotation Yrotation Xrotation
			JOINT Spine1
			{
				OFFSET 0.056720 2.048850 -0.042750
				CHANNELS 3 Zrotation Yrotation Xrotation
				JOINT Neck
				{
					OFFSET 0.000000 0.000000 0.000000
					CHANNELS 3 Zrotation Yrotation Xrotation
					JOINT Neck1
					{
						OFFSET -0.054170 1.746240 0.172020
						CHANNELS 3 Zrotation Yrotation Xrotation
						JOINT Head
						{
							OFFSET 0.104070 1.761360 -0.123970
							CHANNELS 3 Zrotation Yrotation Xrotation
							End Site
							{
								OFFSET 0.000000 0.000000 0.000000
							}
						}
					}
				}
				JOINT LeftShoulder
				{
					OFFSET 0.000000 0.000000 0.000000
					CHANNELS 3 Zrotation Yrotation Xrotation
					JOINT LeftArm
					{
						OFFSET 3.362410 1.200890 -0.311210
						CHANNELS 3 Zrotation Yrotation Xrotation
						JOINT LeftForeArm
						{
							OFFSET 4.983000 -0.000000 -0.000000
							CHANNELS 3 Zrotation Yrotation Xrotation
							JOINT LeftHand
							{
								OFFSET 3.483560 -0.000000 -0.000000
								CHANNELS 3 Zrotation Yrotation Xrotation
								JOINT LeftFingerBase
								{
									OFFSET 0.000000 0.000000 0.000000
									CHANNELS 3 Zrotation Yrotation Xrotation
									JOINT LeftHandIndex1
									{
										OFFSET 0.715260 -0.000000 -0.000000
										CHANNELS 3 Zrotation Yrotation Xrotation
										End Site
										{
											OFFSET 0.000000 0.000000 0.000000
										}
									}
								}
								JOINT LThumb
								{
									OFFSET 0.000000 0.000000 0.000000
									CHANNELS 3 Zrotation Yrotation Xrotation
									End Site
									{
										OFFSET 0.000000 0.000000 0.000000
									}
								}
							}
						}
					}
				}
				JOINT RightShoulder
				{
					OFFSET 0.000000 0.000000 0.000000
					CHANNELS 3 Zrotation Yrotation Xrotation
					JOINT RightArm
					{
						OFFSET -3.136600 1.374050 -0.404650
						CHANNELS 3 Zrotation Yrotation Xrotation
						JOINT RightForeArm
						{
							OFFSET -5.241900 -0.000000 -0.000000
							CHANNELS 3 Zrotation Yrotation Xrotation
							JOINT RightHand
							{
								OFFSET -3.444170 -0.000000 -0.000000
								CHANNELS 3 Zrotation Yrotation Xrotation
								JOINT RightFingerBase
								{
									OFFSET 0.000000 0.000000 0.000000
									CHANNELS 3 Zrotation Yrotation Xrotation
									JOINT RightHandIndex1
									{
										OFFSET -0.622530 -0.000000 -0.000000
										CHANNELS 3 Zrotation Yrotation Xrotation
										End Site
										{
											OFFSET 0.000000 0.000000 0.000000
										}
									}
								}
								JOINT RThumb
								{
									OFFSET 0.000000 0.000000 0.000000
									CHANNELS 3 Zrotation Yrotation Xrotation
									End Site
									{
										OFFSET 0.000000 0.000000 0.000000
									}
								}
							}
						}
					}
				}
			}
		}
	}
}
MOTION
Frames: 8
Frame Time: 0.008333
4.880774 17.841183 -27.205217 2.113303 25.064037 4.732619 -5.167305 1.372216 1.181234 -17.656014 -34.485539 -2.406384 2.317074 9.565001 28.729196 6.036996 -7.929797 -41.701705 0.070600 -1.714700 -4.717900 0.545384 -1.434615 1.707730 20.698371 9.931694 -6.785171 -2.854834 -9.978571 30.003491 -3.867370 14.205062 -29.076994 -0.594100 4.934400 -13.721700 1.597559 -0.323524 -1.016591 -6.964077 -1.385431 1.752559 0.622853 -0.520595 -3.022492 1.931408 0.057634 -17.621282 4.274153 0.274394 28.851293 -0.944800 1.823000 15.890800 0.095245 -9.570077 0.200971 -91.274359 -4.481666 32.672148 21.634830 -22.026127 -4.981450 -0.643023 -1.114491 -20.496895 24.680735 10.275817 5.283300 -7.125000 0.000000 0.000000 -1.293800 42.246200 0.087900 4.588290 12.038482 0.409532 95.703219 -2.340342 -24.864393 -16.506649 17.332694 -3.487907 3.156385 0.179607 -9.154941 -43.529831 -6.718141 6.256300 7.125000 0.000000 0.000000 -17.074900 -38.057300 -3.025000 
4.880774 17.841377 -27.208712 2.120939 24.983725 4.705565 -5.166730 1.368783 1.188730 -17.666966 -34.396584 -2.413431 2.311989 9.559278 28.707891 6.038107 -7.927089 -41.708301 0.069400 -1.699200 -4.675100 0.544736 -1.436315 1.709968 20.673064 9.907125 -6.766073 -2.855018 -9.979954 30.005393 -3.856272 14.314412 -28.981706 -0.586800 4.904500 -13.636400 1.545318 -0.352310 -1.046965 -6.973903 -1.425921 1.793659 0.651285 -0.541575 -2.983115 1.916707 0.026853 -17.614817 4.289492 0.229430 28.867395 -0.942300 1.805400 15.896100 0.096157 -9.572213 0.201000 -91.198068 -4.481390 32.828290 21.570921 -21.944041 -4.949210 -0.635396 -1.109182 -20.498462 24.469854 10.231295 5.210200 -7.125000 0.000000 0.000000 -1.486300 42.172100 0.103700 4.588968 12.044970 0.411089 95.637270 -2.282561 -24.885902 -16.458169 17.275939 -3.474436 3.159131 0.165885 -9.051560 -43.550241 -6.683960 6.215000 7.125000 0.000000 0.000000 -17.083100 -37.998400 -3.052200 
4.874948 17.837688 -27.206187 2.180233 24.967466 4.619190 -5.169742 1.370502 1.204107 -17.758064 -34.336356 -2.282755 2.304489 9.553601 28.680050 6.036956 -7.910002 -41.716287 0.073400 -1.748300 -4.810700 0.540800 -1.444732 1.715885 20.718187 10.109859 -6.526090 -2.863039 -9.989174 30.032038 -3.914702 14.296563 -29.324687 -0.586100 4.901900 -13.628900 1.368465 -0.367673 -1.082510 -7.045318 -1.450630 1.921460 0.745267 -0.555119 -2.908892 1.946236 -0.048560 -17.630073 4.332958 0.093819 28.874672 -0.945000 1.759100 15.900200 0.103861 -9.576922 0.201324 -91.048841 -4.483134 33.125276 21.484988 -21.833082 -4.907903 -0.628791 -1.100589 -20.472434 24.251784 10.195066 5.138200 -7.125000 0.000000 0.000000 -1.686100 42.102900 0.120600 4.589771 12.053333 0.403434 95.677606 -2.195533 -25.084307 -16.393986 17.210555 -3.456624 3.164568 0.146242 -8.886840 -43.565046 -6.611717 6.131000 7.125000 0.000000 0.000000 -17.078800 -37.883700 -3.101400 
4.870385 17.836522 -27.207644 2.263464 24.950885 4.593925 -5.173281 1.370257 1.212089 -17.853698 -34.303172 -2.217056 2.296764 9.543625 28.648979 6.024469 -7.817397 -41.701152 0.073800 -1.752500 -4.822200 0.538328 -1.448874 1.719862 20.661822 10.090364 -6.472036 -2.868504 -9.998146 30.055275 -3.928281 14.389251 -29.377186 -0.594900 4.937700 -13.731000 1.210143 -0.409661 -1.072470 -7.094800 -1.509838 1.977876 0.829232 -0.582951 -2.885803 1.918547 -0.119614 -17.650578 4.366728 -0.009640 28.900425 -0.938600 1.718000 15.912800 0.101234 -9.576200 0.200876 -90.951418 -4.471319 33.384350 21.330978 -21.649016 -4.842652 -0.677903 -1.103986 -20.142352 24.846920 10.603554 5.472300 -7.125000 0.000000 0.000000 -1.155500 42.603000 0.068400 4.593927 12.060333 0.401563 95.672207 -2.140462 -25.205684 -16.340113 17.152449 -3.440460 3.165643 0.126978 -8.729966 -43.550571 -6.540630 6.042900 7.125000 0.000000 0.000000 -17.046200 -37.769700 -3.144700 
4.871356 17.838173 -27.215703 2.268115 24.831529 4.579091 -5.172811 1.367493 1.220322 -17.848809 -34.187441 -2.253452 2.288219 9.533158 28.608417 6.028612 -7.878597 -41.697256 0.069600 -1.701600 -4.681600 0.536918 -1.446533 1.720368 20.590727 9.985188 -6.570124 -2.874304 -10.009782 30.094389 -3.876708 14.522080 -29.045713 -0.606700 4.985500 -13.867200 1.205798 -0.427364 -1.054018 -7.103829 -1.529735 2.023661 0.826570 -0.595482 -2.878300 1.829207 -0.177017 -17.689916 4.433381 -0.075968 28.898554 -0.904800 1.687400 15.914300 0.095466 -9.572400 0.198406 -90.901217 -4.485501 33.573807 21.187507 -21.469715 -4.775391 -0.695810 -1.106135 -19.956504 24.921848 10.824417 5.596500 -7.125000 0.000000 0.000000 -1.098100 42.851600 0.058200 4.593723 12.069462 0.403350 95.649636 -2.116189 -25.149875 -16.336430 17.147753 -3.442528 3.171699 0.131701 -8.789434 -43.634255 -6.558003 6.077500 7.125000 0.000000 0.000000 -17.127400 -37.798700 -3.148000 
4.872715 17.839144 -27.223762 2.313715 24.733590 4.586335 -5.176872 1.364866 1.225492 -17.891334 -34.102711 -2.278639 2.281529 9.524757 28.577155 6.028013 -7.900678 -41.688935 0.066200 -1.660500 -4.568400 0.531666 -1.444371 1.718891 20.490203 9.897604 -6.658009 -2.883096 -10.024787 30.143476 -3.853879 14.602564 -28.892077 -0.611300 5.004100 -13.920100 1.223336 -0.425534 -1.025724 -7.196880 -1.525776 2.041667 0.791541 -0.593128 -2.885035 1.806927 -0.277319 -17.697786 4.465994 -0.224201 28.896141 -0.910200 1.628000 15.907700 0.094057 -9.568266 0.198540 -90.803821 -4.481122 33.786217 20.999867 -21.232645 -4.684132 -0.703454 -1.102102 -19.785483 24.773323 10.952289 5.618100 -7.125000 0.000000 0.000000 -1.243400 42.970300 0.062300 4.599068 12.075420 0.400260 95.675813 -2.093355 -25.231148 -16.324016 17.132892 -3.431278 3.160691 0.123968 -8.809594 -43.449466 -6.460442 5.934800 7.125000 0.000000 0.000000 -16.934400 -37.646000 -3.175900 
4.873686 17.838756 -27.231336 2.401538 24.566172 4.568700 -5.181316 1.360662 1.239709 -17.988642 -33.939758 -2.275939 2.272246 9.514968 28.536979 6.028697 -7.926109 -41.687749 0.064000 -1.631900 -4.489500 0.524459 -1.443463 1.720379 20.329302 9.736876 -6.765498 -2.895675 -10.047547 30.217198 -3.805633 14.732834 -28.579178 -0.615300 5.020200 -13.966200 1.201608 -0.415211 -1.007190 -7.312798 -1.508916 2.143404 0.770642 -0.586971 -2.856328 1.815407 -0.363113 -17.727132 4.480884 -0.360962 28.847046 -0.927300 1.571100 15.886000 0.099751 -9.571804 0.197937 -90.685048 -4.509053 33.976605 20.819125 -21.003891 -4.597129 -0.715551 -1.099752 -19.614308 24.700021 11.132821 5.683500 -7.125000 0.000000 0.000000 -1.322800 43.154700 0.060200 4.598414 12.082074 0.393517 95.739799 -2.044995 -25.190994 -16.352635 17.166850 -3.441137 3.162954 0.134109 -8.932764 -43.473828 -6.461826 5.945200 7.125000 0.000000 0.000000 -16.959000 -37.654700 -3.177100 
4.860287 17.833609 -27.225413 2.473612 24.610399 4.402663 -5.180578 1.369311 1.262706 -18.126330 -33.909342 -2.030031 2.263668 9.510648 28.510442 6.021758 -7.856347 -41.694689 0.069300 -1.698200 -4.672300 0.522636 -1.454282 1.730811 20.448436 10.031827 -6.400548 -2.917098 -10.074706 30.304491 -3.892771 14.622168 -29.118340 -0.615300 5.020400 -13.966900 0.890096 -0.466895 -0.963749 -7.293321 -1.575052 2.348916 0.955006 -0.624468 -2.801862 1.766474 -0.429662 -17.773526 4.523747 -0.454247 28.821199 -0.912000 1.528700 15.879700 0.090172 -9.577382 0.191309 -90.604267 -4.542814 33.925686 20.598100 -20.709237 -4.479037 -0.708838 -1.086521 -19.464115 24.265762 11.068818 5.538500 -7.125000 0.000000 0.000000 -1.720400 43.026300 0.083800 4.590769 12.087091 0.384259 95.759366 -2.025271 -25.097168 -16.365689 17.180077 -3.444049 3.158567 0.136041 -9.023462 -43.427628 -6.414820 5.886300 7.125000 0.000000 0.000000 -16.904200 -37.585900 -3.195800 
